<svg width="25" height="25" viewBox="0 0 25 25" fill="none" xmlns="http://www.w3.org/2000/svg">
<path d="M20.8335 7.29175H4.16683C3.01624 7.29175 2.0835 8.22449 2.0835 9.37508V19.7917C2.0835 20.9423 3.01624 21.8751 4.16683 21.8751H20.8335C21.9841 21.8751 22.9168 20.9423 22.9168 19.7917V9.37508C22.9168 8.22449 21.9841 7.29175 20.8335 7.29175Z" stroke="white" stroke-width="2" stroke-linecap="round" stroke-linejoin="round"/>
<path d="M16.6668 21.875V5.20833C16.6668 4.6558 16.4473 4.12589 16.0566 3.73519C15.6659 3.34449 15.136 3.125 14.5835 3.125H10.4168C9.86429 3.125 9.33439 3.34449 8.94369 3.73519C8.55299 4.12589 8.3335 4.6558 8.3335 5.20833V21.875" stroke="white" stroke-width="2" stroke-linecap="round" stroke-linejoin="round"/>
</svg>
