<svg width="39" height="41" viewBox="0 0 39 41" fill="none" xmlns="http://www.w3.org/2000/svg">
<g clip-path="url(#clip0_213_3303)">
<path d="M19.5 25.625C22.1924 25.625 24.375 23.3305 24.375 20.5C24.375 17.6695 22.1924 15.375 19.5 15.375C16.8076 15.375 14.625 17.6695 14.625 20.5C14.625 23.3305 16.8076 25.625 19.5 25.625Z" stroke="white" stroke-width="2" stroke-linecap="round" stroke-linejoin="round"/>
<path d="M31.525 25.6249C31.3087 26.1402 31.2442 26.7117 31.3397 27.2659C31.4353 27.8201 31.6866 28.3315 32.0612 28.7341L32.1588 28.8366C32.4609 29.1539 32.7006 29.5307 32.8642 29.9455C33.0277 30.3603 33.1119 30.8049 33.1119 31.2539C33.1119 31.7029 33.0277 32.1475 32.8642 32.5623C32.7006 32.977 32.4609 33.3538 32.1588 33.6712C31.8569 33.9888 31.4985 34.2408 31.1039 34.4128C30.7094 34.5847 30.2865 34.6732 29.8594 34.6732C29.4323 34.6732 29.0094 34.5847 28.6148 34.4128C28.2203 34.2408 27.8618 33.9888 27.56 33.6712L27.4625 33.5687C27.0795 33.1748 26.5931 32.9106 26.066 32.8102C25.5388 32.7097 24.9951 32.7775 24.505 33.0049C24.0244 33.2215 23.6145 33.581 23.3257 34.0394C23.037 34.4977 22.8821 35.0348 22.88 35.5845V35.8749C22.88 36.7811 22.5376 37.6501 21.9281 38.2909C21.3186 38.9316 20.492 39.2916 19.63 39.2916C18.768 39.2916 17.9414 38.9316 17.3319 38.2909C16.7224 37.6501 16.38 36.7811 16.38 35.8749V35.7212C16.3674 35.1557 16.1933 34.6073 15.8803 34.1473C15.5673 33.6872 15.1299 33.3368 14.625 33.1416C14.1349 32.9142 13.5912 32.8463 13.064 32.9468C12.5369 33.0473 12.0505 33.3115 11.6675 33.7053L11.57 33.8078C11.2682 34.1255 10.9097 34.3775 10.5152 34.5495C10.1206 34.7214 9.69773 34.8099 9.27062 34.8099C8.84352 34.8099 8.42061 34.7214 8.02607 34.5495C7.63153 34.3775 7.27309 34.1255 6.97125 33.8078C6.66908 33.4905 6.42936 33.1137 6.26581 32.6989C6.10225 32.2841 6.01807 31.8395 6.01807 31.3905C6.01807 30.9415 6.10225 30.4969 6.26581 30.0822C6.42936 29.6674 6.66908 29.2906 6.97125 28.9732L7.06875 28.8708C7.44337 28.4681 7.69468 27.9568 7.79026 27.4026C7.88584 26.8484 7.82131 26.2768 7.605 25.7616C7.39901 25.2563 7.05698 24.8254 6.62101 24.5219C6.18503 24.2183 5.67415 24.0554 5.15125 24.0533H4.875C4.01305 24.0533 3.1864 23.6933 2.5769 23.0525C1.96741 22.4118 1.625 21.5427 1.625 20.6366C1.625 19.7304 1.96741 18.8614 2.5769 18.2206C3.1864 17.5799 4.01305 17.2199 4.875 17.2199H5.02125C5.55912 17.2067 6.08076 17.0237 6.51836 16.6946C6.95596 16.3656 7.28929 15.9058 7.475 15.3749C7.69131 14.8597 7.75584 14.2881 7.66026 13.7339C7.56468 13.1797 7.31337 12.6684 6.93875 12.2658L6.84125 12.1633C6.53908 11.8459 6.29936 11.4691 6.13581 11.0543C5.97225 10.6396 5.88807 10.195 5.88807 9.74596C5.88807 9.29696 5.97225 8.85236 6.13581 8.43758C6.29936 8.0228 6.53908 7.64598 6.84125 7.32867C7.14309 7.011 7.50153 6.75899 7.89607 6.58705C8.29061 6.41511 8.71352 6.32661 9.14062 6.32661C9.56773 6.32661 9.99064 6.41511 10.3852 6.58705C10.7797 6.75899 11.1382 7.011 11.44 7.32867L11.5375 7.43117C11.9205 7.825 12.4069 8.08919 12.934 8.18968C13.4612 8.29016 14.0049 8.22232 14.495 7.99492H14.625C15.1056 7.77836 15.5155 7.41879 15.8043 6.96046C16.093 6.50213 16.2479 5.96505 16.25 5.41534V5.12492C16.25 4.21876 16.5924 3.34972 17.2019 2.70897C17.8114 2.06822 18.638 1.70825 19.5 1.70825C20.362 1.70825 21.1886 2.06822 21.7981 2.70897C22.4076 3.34972 22.75 4.21876 22.75 5.12492V5.27867C22.7521 5.82839 22.907 6.36547 23.1957 6.8238C23.4845 7.28213 23.8944 7.6417 24.375 7.85825C24.8651 8.08566 25.4088 8.15349 25.936 8.05301C26.4631 7.95253 26.9495 7.68834 27.3325 7.2945L27.43 7.192C27.7318 6.87433 28.0903 6.62232 28.4848 6.45038C28.8794 6.27844 29.3023 6.18994 29.7294 6.18994C30.1565 6.18994 30.5794 6.27844 30.9739 6.45038C31.3685 6.62232 31.7269 6.87433 32.0287 7.192C32.3309 7.50932 32.5706 7.88614 32.7342 8.30091C32.8977 8.71569 32.9819 9.16029 32.9819 9.60929C32.9819 10.0583 32.8977 10.5029 32.7342 10.9177C32.5706 11.3324 32.3309 11.7093 32.0287 12.0266L31.9312 12.1291C31.5566 12.5317 31.3053 13.0431 31.2097 13.5972C31.1142 14.1514 31.1787 14.723 31.395 15.2383V15.3749C31.601 15.8802 31.943 16.3111 32.379 16.6146C32.815 16.9182 33.3258 17.0811 33.8487 17.0833H34.125C34.987 17.0833 35.8136 17.4432 36.4231 18.084C37.0326 18.7247 37.375 19.5938 37.375 20.4999C37.375 21.4061 37.0326 22.2751 36.4231 22.9159C35.8136 23.5566 34.987 23.9166 34.125 23.9166H33.9787C33.4558 23.9188 32.945 24.0817 32.509 24.3852C32.073 24.6887 31.731 25.1196 31.525 25.6249Z" stroke="white" stroke-width="2" stroke-linecap="round" stroke-linejoin="round"/>
</g>
<defs>
<clipPath id="clip0_213_3303">
<rect width="39" height="41" fill="white"/>
</clipPath>
</defs>
</svg>
