<svg width="26" height="25" viewBox="0 0 26 25" fill="none" xmlns="http://www.w3.org/2000/svg">
<path d="M23.3185 12.625C23.1903 12.625 22.9338 12.75 22.8056 12.875L21.5233 14.125L24.2162 16.75L25.4985 15.5C25.755 15.25 25.755 14.75 25.4985 14.5L23.8315 12.875C23.7032 12.75 23.575 12.625 23.3185 12.625ZM20.8821 14.875L13.0598 22.375V25H15.7527L23.575 17.375L20.8821 14.875ZM23.3185 0H13.0598V7.5H23.3185V0ZM20.7538 5H15.6245V2.5H20.7538V5ZM13.0598 18.825V10H23.3185V10.125C22.344 10.125 21.4848 10.625 20.9975 11.1125L19.5613 12.5H15.6245V16.3375L13.0598 18.825ZM10.4951 0H0.236328V12.5H10.4951V0ZM7.9304 10H2.80102V2.5H7.9304V10ZM10.4951 21.325V15H0.236328V22.5H10.4951V21.325ZM7.9304 20H2.80102V17.5H7.9304V20Z" fill="white"/>
</svg>
