<svg width="22" height="25" viewBox="0 0 22 25" fill="none" xmlns="http://www.w3.org/2000/svg">
<path d="M10.6061 12.5001C10.034 12.5001 9.47472 12.343 8.99904 12.0487C8.52336 11.7544 8.15261 11.336 7.93368 10.8466C7.71475 10.3571 7.65747 9.81856 7.76908 9.29896C7.88069 8.77936 8.15618 8.30208 8.56071 7.92747C8.96524 7.55286 9.48065 7.29775 10.0417 7.1944C10.6029 7.09104 11.1844 7.14409 11.713 7.34682C12.2415 7.54956 12.6933 7.89288 13.0111 8.33338C13.329 8.77387 13.4986 9.29175 13.4986 9.82153C13.4986 10.5319 13.1939 11.2132 12.6514 11.7156C12.109 12.2179 11.3732 12.5001 10.6061 12.5001ZM10.6061 0C7.79414 0.00295397 5.0983 1.03867 3.10997 2.87992C1.12164 4.72117 0.00318993 7.2176 0 9.82153C0 13.326 1.74879 17.0403 5.06198 20.5638C6.55071 22.156 8.22627 23.5897 10.0577 24.8384C10.2198 24.9436 10.4129 25 10.6109 25C10.8088 25 11.002 24.9436 11.1641 24.8384C12.9921 23.5892 14.6644 22.1555 16.1501 20.5638C19.4585 17.0403 21.2121 13.326 21.2121 9.82153C21.2089 7.2176 20.0905 4.72117 18.1022 2.87992C16.1138 1.03867 13.418 0.00295397 10.6061 0ZM10.6061 22.9913C8.61381 21.5404 1.92837 16.2111 1.92837 9.82153C1.92837 7.6903 2.84263 5.64637 4.47001 4.13936C6.09739 2.63236 8.30459 1.78573 10.6061 1.78573C12.9075 1.78573 15.1147 2.63236 16.7421 4.13936C18.3695 5.64637 19.2837 7.6903 19.2837 9.82153C19.2837 16.2089 12.5983 21.5404 10.6061 22.9913Z" fill="black"/>
<path d="M10.6061 12.5001C10.034 12.5001 9.47472 12.343 8.99904 12.0487C8.52336 11.7544 8.15261 11.336 7.93368 10.8466C7.71475 10.3571 7.65747 9.81856 7.76908 9.29896C7.88069 8.77936 8.15618 8.30208 8.56071 7.92747C8.96524 7.55286 9.48065 7.29775 10.0417 7.1944C10.6029 7.09104 11.1844 7.14409 11.713 7.34682C12.2415 7.54956 12.6933 7.89288 13.0111 8.33338C13.329 8.77387 13.4986 9.29175 13.4986 9.82153C13.4986 10.5319 13.1939 11.2132 12.6514 11.7156C12.109 12.2179 11.3732 12.5001 10.6061 12.5001ZM10.6061 0C7.79414 0.00295397 5.0983 1.03867 3.10997 2.87992C1.12164 4.72117 0.00318993 7.2176 0 9.82153C0 13.326 1.74879 17.0403 5.06198 20.5638C6.55071 22.156 8.22627 23.5897 10.0577 24.8384C10.2198 24.9436 10.4129 25 10.6109 25C10.8088 25 11.002 24.9436 11.1641 24.8384C12.9921 23.5892 14.6644 22.1555 16.1501 20.5638C19.4585 17.0403 21.2121 13.326 21.2121 9.82153C21.2089 7.2176 20.0905 4.72117 18.1022 2.87992C16.1138 1.03867 13.418 0.00295397 10.6061 0ZM10.6061 22.9913C8.61381 21.5404 1.92837 16.2111 1.92837 9.82153C1.92837 7.6903 2.84263 5.64637 4.47001 4.13936C6.09739 2.63236 8.30459 1.78573 10.6061 1.78573C12.9075 1.78573 15.1147 2.63236 16.7421 4.13936C18.3695 5.64637 19.2837 7.6903 19.2837 9.82153C19.2837 16.2089 12.5983 21.5404 10.6061 22.9913Z" fill="black" fill-opacity="0.2"/>
</svg>
