<svg width="30" height="25" viewBox="0 0 30 25" fill="none" xmlns="http://www.w3.org/2000/svg">
<path d="M15 5.72925C16.1603 5.72925 17.2731 6.11336 18.0936 6.79709C18.9141 7.48081 19.375 8.40815 19.375 9.37508C19.375 10.342 18.9141 11.2693 18.0936 11.9531C17.2731 12.6368 16.1603 13.0209 15 13.0209C13.8397 13.0209 12.7269 12.6368 11.9064 11.9531C11.0859 11.2693 10.625 10.342 10.625 9.37508C10.625 8.40815 11.0859 7.48081 11.9064 6.79709C12.7269 6.11336 13.8397 5.72925 15 5.72925ZM6.25 8.33341C6.95 8.33341 7.6 8.48966 8.1625 8.77091C7.975 10.2605 8.5 11.7397 9.575 12.8959C8.95 13.8959 7.7 14.5834 6.25 14.5834C5.25544 14.5834 4.30161 14.2542 3.59835 13.6681C2.89509 13.0821 2.5 12.2872 2.5 11.4584C2.5 10.6296 2.89509 9.83476 3.59835 9.24871C4.30161 8.66265 5.25544 8.33341 6.25 8.33341ZM23.75 8.33341C24.7446 8.33341 25.6984 8.66265 26.4017 9.24871C27.1049 9.83476 27.5 10.6296 27.5 11.4584C27.5 12.2872 27.1049 13.0821 26.4017 13.6681C25.6984 14.2542 24.7446 14.5834 23.75 14.5834C22.3 14.5834 21.05 13.8959 20.425 12.8959C21.5 11.7397 22.025 10.2605 21.8375 8.77091C22.4 8.48966 23.05 8.33341 23.75 8.33341ZM6.875 19.0105C6.875 16.8542 10.5125 15.1042 15 15.1042C19.4875 15.1042 23.125 16.8542 23.125 19.0105V20.8334H6.875V19.0105ZM0 20.8334V19.2709C0 17.823 2.3625 16.6042 5.5625 16.2501C4.825 16.9584 4.375 17.9376 4.375 19.0105V20.8334H0ZM30 20.8334H25.625V19.0105C25.625 17.9376 25.175 16.9584 24.4375 16.2501C27.6375 16.6042 30 17.823 30 19.2709V20.8334Z" fill="white"/>
</svg>
