<svg width="104" height="98" viewBox="0 0 104 98" fill="none" xmlns="http://www.w3.org/2000/svg">
<path d="M101.616 34.177C105.676 46.3179 104.518 59.4663 98.3872 70.817C92.2568 82.1678 81.6402 90.8221 68.8025 94.9335C55.9647 99.045 41.9223 98.2881 29.6711 92.8244C17.42 87.3606 7.93015 77.6226 3.22628 65.6879C-1.47759 53.7532 -1.02305 40.5669 4.49293 28.9421C10.0089 17.3174 20.1496 8.1747 32.7514 3.46468C45.3533 -1.24535 59.4185 -1.14979 71.9463 3.73096C84.4741 8.61172 94.4725 17.8912 99.8084 29.5897L85.4659 35.3453C81.7307 27.1564 74.7318 20.6607 65.9624 17.2442C57.193 13.8276 47.3473 13.7608 38.526 17.0578C29.7047 20.3548 22.6062 26.7547 18.7451 34.892C14.8839 43.0293 14.5657 52.2598 17.8584 60.614C21.1511 68.9683 27.794 75.7849 36.3698 79.6096C44.9456 83.4342 54.7753 83.964 63.7617 81.086C72.7482 78.2079 80.1798 72.1499 84.4711 64.2044C88.7623 56.2589 89.5735 47.055 86.7315 38.5564L101.616 34.177Z" fill="black"/>
<path d="M96.9081 24.1852C100.043 29.2227 102.19 34.7468 103.245 40.4952L87.8717 42.9791C87.1327 38.9553 85.6303 35.0884 83.4357 31.5621L96.9081 24.1852Z" fill="#A6B7D4"/>
</svg>
