<svg width="180" height="180" viewBox="0 0 180 180" fill="none" xmlns="http://www.w3.org/2000/svg">
<g filter="url(#filter0_d_125_1843)">
<path d="M140 70C140 83.0437 134.903 95.571 125.796 104.909C116.689 114.247 104.293 119.657 91.2537 119.984C78.2141 120.311 65.5629 115.53 55.9993 106.66C46.4356 97.79 40.7168 85.534 40.0629 72.5067C39.4089 59.4794 43.8717 46.7122 52.499 36.9292C61.1264 27.1462 73.2351 21.1218 86.242 20.1414C99.2488 19.1611 112.124 23.3023 122.12 31.6816C132.116 40.0609 138.442 52.0148 139.749 64.993L124.824 66.4951C123.91 57.4104 119.481 49.0426 112.484 43.1771C105.487 37.3116 96.4742 34.4127 87.3694 35.099C78.2646 35.7853 69.7885 40.0023 63.7493 46.8504C57.7102 53.6986 54.5863 62.6355 55.044 71.7547C55.5018 80.8738 59.5049 89.453 66.1995 95.662C72.894 101.871 81.7499 105.218 90.8776 104.989C100.005 104.76 108.682 100.973 115.057 94.4365C121.432 87.8997 125 79.1306 125 70H140Z" fill="#D5D7F4"/>
</g>
<path d="M140 70C140 83.2608 134.732 95.9785 125.355 105.355C115.979 114.732 103.261 120 90 120C76.7392 120 64.0215 114.732 54.6447 105.355C45.2678 95.9785 40 83.2608 40 70L55 70C55 79.2826 58.6875 88.185 65.2513 94.7487C71.815 101.313 80.7174 105 90 105C99.2826 105 108.185 101.313 114.749 94.7487C121.313 88.185 125 79.2826 125 70H140Z" fill="url(#paint0_linear_125_1843)"/>
<path d="M139.715 64.6731C140.633 73.236 139.323 81.8907 135.913 89.7987C132.503 97.7067 127.108 104.6 120.251 109.81L111.176 97.8672C115.976 94.2199 119.752 89.3947 122.139 83.8591C124.526 78.3235 125.443 72.2652 124.801 66.2712L139.715 64.6731Z" fill="#4C6FFF"/>
<defs>
<filter id="filter0_d_125_1843" x="-5.71652e-05" y="-0.000103044" width="180" height="180" filterUnits="userSpaceOnUse" color-interpolation-filters="sRGB">
<feFlood flood-opacity="0" result="BackgroundImageFix"/>
<feColorMatrix in="SourceAlpha" type="matrix" values="0 0 0 0 0 0 0 0 0 0 0 0 0 0 0 0 0 0 127 0" result="hardAlpha"/>
<feOffset dy="20"/>
<feGaussianBlur stdDeviation="20"/>
<feColorMatrix type="matrix" values="0 0 0 0 0.658039 0 0 0 0 0.572549 0 0 0 0 1 0 0 0 0.16 0"/>
<feBlend mode="normal" in2="BackgroundImageFix" result="effect1_dropShadow_125_1843"/>
<feBlend mode="normal" in="SourceGraphic" in2="effect1_dropShadow_125_1843" result="shape"/>
</filter>
<linearGradient id="paint0_linear_125_1843" x1="61.9828" y1="70" x2="90" y2="120" gradientUnits="userSpaceOnUse">
<stop stop-color="#FF92C6"/>
<stop offset="1" stop-color="#FF93A6"/>
</linearGradient>
</defs>
</svg>
