<svg width="104" height="98" viewBox="0 0 104 98" fill="none" xmlns="http://www.w3.org/2000/svg">
<path d="M104 48.7748C104 61.4989 98.6989 73.7193 89.2277 82.8287C79.7565 91.9381 66.8651 97.2152 53.3039 97.5343C39.7427 97.8533 26.5854 93.189 16.6392 84.5364C6.69307 75.8839 0.74547 63.9281 0.0653882 51.2201C-0.614694 38.512 4.02659 26.0577 12.999 16.5144C21.9714 6.97105 34.5646 1.09431 48.0916 0.137962C61.6187 -0.818388 75.0088 3.22137 85.4049 11.3954C95.801 19.5693 102.38 31.2303 103.739 43.8905L88.217 45.3558C87.2661 36.4937 82.6607 28.331 75.3834 22.6092C68.1061 16.8874 58.7331 14.0596 49.2642 14.729C39.7952 15.3985 30.98 19.5122 24.6993 26.1925C18.4186 32.8728 15.1697 41.5908 15.6458 50.4865C16.1218 59.3821 20.2851 67.7511 27.2475 73.8079C34.2098 79.8647 43.4199 83.1298 52.9127 82.9064C62.4056 82.6831 71.4295 78.9891 78.0594 72.6125C84.6892 66.2359 88.4 57.6817 88.4 48.7748H104Z" fill="black"/>
<path d="M103.704 43.5784C104.658 51.9315 103.296 60.3742 99.7496 68.0884C96.2031 75.8026 90.5925 82.5268 83.4613 87.6096L74.0229 75.9592C79.0147 72.4012 82.9422 67.6943 85.4247 62.2943C87.9073 56.8944 88.8608 50.9845 88.1928 45.1373L103.704 43.5784Z" fill="#A6B7D4"/>
</svg>
