<svg width="98" height="98" viewBox="0 0 98 98" fill="none" xmlns="http://www.w3.org/2000/svg">
<path d="M28.3615 93.0727C37.1227 97.1101 46.8845 98.4589 56.4123 96.9484C65.9401 95.4379 74.806 91.1359 81.8888 84.5866C88.9717 78.0373 93.9534 69.5348 96.204 60.1542C98.4546 50.7736 97.873 40.9363 94.5328 31.8863C91.1925 22.8363 85.2436 14.98 77.4383 9.31092C69.6331 3.64185 60.322 0.414612 50.6826 0.0373187C41.0432 -0.339974 31.5084 2.14962 23.2839 7.19128C15.0594 12.2329 8.51468 19.6002 4.47727 28.3615L17.7666 34.4855C20.5928 28.3527 25.1741 23.1956 30.9313 19.6664C36.6884 16.1372 43.3628 14.3945 50.1103 14.6586C56.8579 14.9227 63.3757 17.1818 68.8393 21.1501C74.303 25.1185 78.4673 30.6179 80.8054 36.9529C83.1436 43.2879 83.5508 50.1741 81.9753 56.7405C80.3999 63.3069 76.9127 69.2586 71.9547 73.8432C66.9967 78.4277 60.7906 81.439 54.1211 82.4964C47.4516 83.5537 40.6184 82.6096 34.4855 79.7834L28.3615 93.0727Z" fill="black"/>
<path d="M77.5791 88.1364C68.2162 94.9881 56.7175 98.2778 45.1475 97.4149C33.5775 96.552 22.6939 91.5931 14.4509 83.4284C6.20789 75.2637 1.14525 64.428 0.171935 52.8668C-0.80138 41.3055 2.37838 29.776 9.14032 20.348L21.0307 28.8761C16.2974 35.4757 14.0715 43.5464 14.7529 51.6392C15.4342 59.7321 18.978 67.3171 24.7481 73.0324C30.5183 78.7477 38.1367 82.2189 46.2357 82.8229C54.3347 83.427 62.3838 81.1242 68.9379 76.328L77.5791 88.1364Z" fill="#A6B7D4"/>
</svg>
