<svg width="104" height="98" viewBox="0 0 104 98" fill="none" xmlns="http://www.w3.org/2000/svg">
<path d="M99.4906 68.6426C93.9649 80.2633 83.8167 89.3986 71.2109 94.0994C58.6052 98.8002 44.54 98.6944 32.0163 93.8044C19.4926 88.9145 9.50185 79.6277 4.1757 67.9253C-1.15045 56.223 -1.39035 43.0316 3.50721 31.1657C8.40476 19.2998 18.052 9.69874 30.3906 4.41104C42.7293 -0.876665 56.7824 -1.43239 69.5517 2.86243C82.3211 7.15725 92.7956 15.9626 98.7406 27.3997C104.686 38.8369 105.63 52.0004 101.373 64.0817L86.5611 59.4897C89.5411 51.0328 88.8799 41.8183 84.7184 33.8123C80.5569 25.8063 73.2248 19.6426 64.2862 16.6362C55.3477 13.6298 45.5105 14.0188 36.8734 17.7202C28.2364 21.4216 21.4833 28.1423 18.055 36.4485C14.6268 44.7546 14.7947 53.9886 18.523 62.1802C22.2513 70.3719 29.2448 76.8727 38.0114 80.2956C46.778 83.7186 56.6236 83.7926 65.4476 80.5021C74.2717 77.2115 81.3755 70.8168 85.2434 62.6823L99.4906 68.6426Z" fill="black"/>
<path d="M96.9081 24.1852C103.092 34.1207 105.332 45.7864 103.233 57.1212C101.134 68.456 94.8316 78.7301 85.4387 86.128L75.4071 74.9221C81.9821 69.7436 86.394 62.5517 87.8631 54.6174C89.3323 46.683 87.7641 38.517 83.4357 31.5621L96.9081 24.1852Z" fill="#A6B7D4"/>
</svg>
