<svg width="49" height="34" viewBox="0 0 49 34" fill="none" xmlns="http://www.w3.org/2000/svg">
<rect width="49" height="34" fill="white"/>
<path d="M42 17C42 26.3888 34.3888 34 25 34C15.6112 34 8 26.3888 8 17C8 7.61116 15.6112 0 25 0C34.3888 0 42 7.61116 42 17Z" fill="#FF5A5F"/>
<path d="M23.9804 20.6276C22.5524 18.8356 21.7124 17.2648 21.4324 15.9208C21.1524 14.8288 21.2644 13.9608 21.7404 13.3168C22.2444 12.5608 23.0004 12.1968 23.9804 12.1968C24.9604 12.1968 25.7164 12.5608 26.2204 13.3168C26.6964 13.9608 26.8084 14.8288 26.5284 15.9208C26.2204 17.2928 25.3804 18.8608 23.9804 20.6276ZM34.122 21.8316C33.926 23.1476 33.03 24.2396 31.798 24.7716C29.418 25.8076 27.0632 24.1556 25.0472 21.9156C28.382 17.7408 28.998 14.4928 27.5672 12.39C26.7272 11.186 25.5232 10.598 23.9804 10.598C20.8724 10.598 19.1616 13.23 19.8336 16.2848C20.2256 17.9368 21.2616 19.8156 22.9136 21.9156C21.8776 23.0636 20.8976 23.8756 20.0296 24.3796C19.3576 24.7436 18.7136 24.9676 18.0976 25.0236C15.2696 25.4436 13.0548 22.6996 14.0628 19.8688C14.2028 19.5048 14.4828 18.8328 14.9588 17.7968L14.9868 17.7408C16.5268 14.378 18.4056 10.57 20.5616 6.3392L20.6176 6.1992L21.2336 5.0232C21.7096 4.1552 21.9056 3.7632 22.6616 3.2872C23.0256 3.0632 23.4736 2.9512 23.9776 2.9512C24.9856 2.9512 25.7696 3.5392 26.1056 4.0152C26.2736 4.2672 26.4696 4.6032 26.7216 5.0232L27.3096 6.1712L27.3936 6.3392C29.5496 10.57 31.4284 14.378 32.9684 17.7408L32.9964 17.7688L33.5564 19.0568L33.8924 19.8688C34.15 20.5156 34.206 21.1596 34.122 21.8316ZM35.41 19.3088C35.214 18.6928 34.878 17.9648 34.458 17.0968V17.0688C32.47 12.838 30.6192 9.03 28.8552 5.6112L28.7432 5.4432C27.4832 2.8672 26.5872 1.3244 23.9804 1.3244C21.4044 1.3244 20.3096 3.1164 19.1896 5.4432L19.1056 5.6112C17.3416 9.03 15.4908 12.838 13.5028 17.0688V17.1248L12.9148 18.4128C12.6908 18.9448 12.5788 19.2248 12.5508 19.3088C11.1228 23.2316 14.0628 26.6756 17.6216 26.6756C17.6496 26.6756 17.7616 26.6756 17.9016 26.6476H18.2936C20.1416 26.4236 22.0484 25.2476 23.9804 23.1448C25.9124 25.2448 27.8192 26.4236 29.6672 26.6476H30.0592C30.1992 26.6756 30.3112 26.6756 30.3392 26.6756C33.898 26.6784 36.838 23.2316 35.41 19.3088Z" fill="white"/>
</svg>
