<svg width="29" height="25" viewBox="0 0 29 25" fill="none" xmlns="http://www.w3.org/2000/svg">
<path d="M13.2244 19.2918V20.2756C13.2244 20.5365 13.1032 20.7867 12.8874 20.9712C12.6717 21.1557 12.3791 21.2594 12.074 21.2594H9.7733V22.2431C9.7733 22.765 9.53091 23.2654 9.09944 23.6344C8.66797 24.0034 8.08277 24.2107 7.47259 24.2107H2.87115C2.26096 24.2107 1.67577 24.0034 1.2443 23.6344C0.812831 23.2654 0.570435 22.765 0.570435 22.2431V19.6991C0.570565 19.1773 0.813047 18.6769 1.24454 18.308L10.1483 10.6936C9.60237 9.10825 9.65388 7.41612 10.2955 5.85718C10.9372 4.29824 12.1364 2.95161 13.7232 2.00823C15.31 1.06485 17.2038 0.5726 19.1361 0.601284C21.0683 0.629967 22.941 1.17813 24.4885 2.16803C26.0361 3.15794 27.1799 4.53936 27.7579 6.1164C28.3359 7.69345 28.3188 9.38609 27.7088 10.9543C27.0988 12.5225 25.9271 13.8867 24.3597 14.8535C22.7922 15.8203 20.9087 16.3405 18.9762 16.3405H16.6732V18.308C16.6732 18.569 16.552 18.8192 16.3362 19.0037C16.1205 19.1882 15.8279 19.2918 15.5228 19.2918H13.2221H13.2244ZM21.2769 8.4703C21.8871 8.4703 22.4723 8.263 22.9037 7.89401C23.3352 7.52503 23.5776 7.02457 23.5776 6.50275C23.5776 5.98092 23.3352 5.48047 22.9037 5.11148C22.4723 4.74249 21.8871 4.5352 21.2769 4.5352C20.6667 4.5352 20.0815 4.74249 19.65 5.11148C19.2186 5.48047 18.9762 5.98092 18.9762 6.50275C18.9762 7.02457 19.2186 7.52503 19.65 7.89401C20.0815 8.263 20.6667 8.4703 21.2769 8.4703Z" fill="black"/>
<path d="M13.2244 19.2918V20.2756C13.2244 20.5365 13.1032 20.7867 12.8874 20.9712C12.6717 21.1557 12.3791 21.2594 12.074 21.2594H9.7733V22.2431C9.7733 22.765 9.53091 23.2654 9.09944 23.6344C8.66797 24.0034 8.08277 24.2107 7.47259 24.2107H2.87115C2.26096 24.2107 1.67577 24.0034 1.2443 23.6344C0.812831 23.2654 0.570435 22.765 0.570435 22.2431V19.6991C0.570565 19.1773 0.813047 18.6769 1.24454 18.308L10.1483 10.6936C9.60237 9.10825 9.65388 7.41612 10.2955 5.85718C10.9372 4.29824 12.1364 2.95161 13.7232 2.00823C15.31 1.06485 17.2038 0.5726 19.1361 0.601284C21.0683 0.629967 22.941 1.17813 24.4885 2.16803C26.0361 3.15794 27.1799 4.53936 27.7579 6.1164C28.3359 7.69345 28.3188 9.38609 27.7088 10.9543C27.0988 12.5225 25.9271 13.8867 24.3597 14.8535C22.7922 15.8203 20.9087 16.3405 18.9762 16.3405H16.6732V18.308C16.6732 18.569 16.552 18.8192 16.3362 19.0037C16.1205 19.1882 15.8279 19.2918 15.5228 19.2918H13.2221H13.2244ZM21.2769 8.4703C21.8871 8.4703 22.4723 8.263 22.9037 7.89401C23.3352 7.52503 23.5776 7.02457 23.5776 6.50275C23.5776 5.98092 23.3352 5.48047 22.9037 5.11148C22.4723 4.74249 21.8871 4.5352 21.2769 4.5352C20.6667 4.5352 20.0815 4.74249 19.65 5.11148C19.2186 5.48047 18.9762 5.98092 18.9762 6.50275C18.9762 7.02457 19.2186 7.52503 19.65 7.89401C20.0815 8.263 20.6667 8.4703 21.2769 8.4703Z" fill="black" fill-opacity="0.2"/>
</svg>
