<svg width="35" height="35" viewBox="0 0 35 35" fill="none" xmlns="http://www.w3.org/2000/svg">
<path d="M25.8484 2.11591C28.2033 6.73308 29.5313 11.9614 29.5313 17.5C29.5313 23.0385 28.2033 28.267 25.8484 32.8842C31.2999 29.9196 35 24.1419 35 17.5C35 10.8581 31.2999 5.08046 25.8484 2.11591Z" fill="#0BA5EC"/>
<path d="M17.9792 1.74889C17.1877 0.627576 15.8392 0.023683 14.4869 0.258367C6.25773 1.68646 0 8.86242 0 17.4999C0 26.1374 6.2577 33.3134 14.4868 34.7415C15.8392 34.9762 17.1876 34.3723 17.9791 33.251C21.1223 28.7983 22.9688 23.3647 22.9688 17.4999C22.9688 11.6351 21.1224 6.2016 17.9792 1.74889Z" fill="#0086C9"/>
</svg>
