<svg width="33" height="32" viewBox="0 0 33 32" fill="none" xmlns="http://www.w3.org/2000/svg">
<g clip-path="url(#clip0_3_321)">
<path d="M7.59188 19.3379L6.478 23.4962L2.40681 23.5823C1.19013 21.3256 0.5 18.7437 0.5 15.9999C0.5 13.3468 1.14525 10.8448 2.289 8.6417H2.28988L5.91437 9.3062L7.50212 12.9089C7.16981 13.8778 6.98869 14.9178 6.98869 15.9999C6.98881 17.1744 7.20156 18.2998 7.59188 19.3379Z" fill="#FBBB00"/>
<path d="M32.2205 13.011C32.4042 13.9788 32.5001 14.9784 32.5001 16C32.5001 17.1455 32.3796 18.2628 32.1502 19.3407C31.3713 23.0083 29.3361 26.211 26.5168 28.4773L26.5159 28.4765L21.9507 28.2435L21.3046 24.2101C23.1753 23.113 24.6373 21.396 25.4074 19.3407H16.8518V13.011H25.5322H32.2205Z" fill="#518EF8"/>
<path d="M26.516 28.4764L26.5169 28.4773C23.7749 30.6812 20.2918 31.9999 16.5002 31.9999C10.407 31.9999 5.10942 28.5942 2.40698 23.5823L7.59204 19.338C8.94323 22.9441 12.4219 25.5112 16.5002 25.5112C18.2531 25.5112 19.8954 25.0373 21.3045 24.21L26.516 28.4764Z" fill="#28B446"/>
<path d="M26.7128 3.6835L21.5295 7.927C20.0711 7.01538 18.3471 6.48875 16.5001 6.48875C12.3295 6.48875 8.78575 9.17356 7.50225 12.909L2.28994 8.64175H2.28906C4.95194 3.50769 10.3163 0 16.5001 0C20.3822 0 23.9418 1.38287 26.7128 3.6835Z" fill="#F14336"/>
</g>
<defs>
<clipPath id="clip0_3_321">
<rect width="32" height="32" fill="white" transform="translate(0.5)"/>
</clipPath>
</defs>
</svg>
