<svg width="30" height="20" viewBox="0 0 30 20" fill="none" xmlns="http://www.w3.org/2000/svg">
<path d="M16.605 8.54671C17.5162 7.41506 18.0061 6.05833 18.0061 4.66672C18.0061 3.27511 17.5162 1.91838 16.605 0.786734C17.4578 0.269343 18.4675 -0.00504016 19.5 7.01051e-05C20.8924 7.01051e-05 22.2277 0.491734 23.2123 1.3669C24.1969 2.24207 24.75 3.42905 24.75 4.66672C24.75 5.90439 24.1969 7.09137 23.2123 7.96654C22.2277 8.84171 20.8924 9.33337 19.5 9.33337C18.4675 9.33848 17.4578 9.0641 16.605 8.54671ZM5.25 4.66672C5.25 3.74374 5.55791 2.8415 6.13478 2.07407C6.71166 1.30664 7.5316 0.708506 8.49091 0.355298C9.45022 0.00209021 10.5058 -0.090325 11.5242 0.0897387C12.5426 0.269802 13.4781 0.714258 14.2123 1.3669C14.9465 2.01954 15.4466 2.85106 15.6491 3.7563C15.8517 4.66154 15.7477 5.59985 15.3504 6.45257C14.953 7.30529 14.2801 8.03412 13.4167 8.5469C12.5534 9.05968 11.5384 9.33337 10.5 9.33337C9.10761 9.33337 7.77226 8.84171 6.78769 7.96654C5.80312 7.09137 5.25 5.90439 5.25 4.66672ZM8.25 4.66672C8.25 5.06228 8.38196 5.44896 8.62919 5.77786C8.87643 6.10675 9.22783 6.3631 9.63896 6.51447C10.0501 6.66585 10.5025 6.70545 10.939 6.62828C11.3754 6.55111 11.7763 6.36063 12.091 6.08093C12.4057 5.80123 12.62 5.44486 12.7068 5.0569C12.7936 4.66894 12.749 4.26681 12.5787 3.90136C12.4084 3.53591 12.12 3.22355 11.75 3.00379C11.38 2.78403 10.945 2.66673 10.5 2.66673C9.90326 2.66673 9.33097 2.87744 8.90901 3.25251C8.48705 3.62758 8.25 4.13629 8.25 4.66672ZM21 17.3333V20H0V17.3333C0 17.3333 0 12 10.5 12C21 12 21 17.3333 21 17.3333ZM18 17.3333C17.79 16.2933 16.005 14.6667 10.5 14.6667C4.995 14.6667 3.105 16.4133 3 17.3333M20.925 12C21.8444 12.6357 22.596 13.4425 23.1273 14.3638C23.6585 15.2852 23.9564 16.2988 24 17.3333V20H30V17.3333C30 17.3333 30 12.4934 20.91 12H20.925Z" fill="white"/>
</svg>
