<svg width="30" height="24" viewBox="0 0 30 24" fill="none" xmlns="http://www.w3.org/2000/svg">
<path d="M27.9412 18.779C27.9314 17.6871 27.4149 16.6423 26.5033 15.8707L26.0784 15.4968C24.6874 14.3177 22.8007 13.6551 20.8333 13.6549C19.7002 13.6617 18.5834 13.8842 17.5654 14.3058L16.2092 14.8875C15.0514 14.3999 13.9925 13.7594 13.0719 12.9902C12.164 12.2185 11.4131 11.3247 10.8497 10.3451L11.5196 9.19561C12.2169 8.01806 12.4581 6.68405 12.2087 5.38357C11.9593 4.0831 11.2321 2.88247 10.1307 1.95268L9.70588 1.59261C9.24804 1.19672 8.70134 0.882495 8.098 0.668437C7.49466 0.45438 6.84688 0.344823 6.19281 0.34622H4.90196C3.60188 0.34622 2.35505 0.783941 1.43575 1.56309C0.516455 2.34224 0 3.39899 0 4.50087V4.59781C0.0540288 6.83312 0.471917 9.05141 1.24183 11.1898C2.23349 13.9608 3.99911 16.4881 6.38889 18.5574C8.81639 20.5944 11.7952 22.0968 15.0654 22.9336C17.5914 23.5978 20.2152 23.9568 22.8595 24H23.0392C24.3393 24 25.5861 23.5623 26.5054 22.7831C27.4247 22.004 27.9412 20.9472 27.9412 19.8454V18.7236V18.779ZM23.0392 21.2718C20.7007 21.2385 18.3794 20.9261 16.1438 20.3439C13.3776 19.6306 10.8552 18.3621 8.79085 16.6463C6.77142 14.898 5.28518 12.759 4.46078 10.4143C3.7406 8.52354 3.33903 6.55605 3.26797 4.57011V4.50087C3.26797 4.13357 3.44012 3.78132 3.74656 3.52161C4.05299 3.26189 4.4686 3.11598 4.90196 3.11598H6.19281C6.409 3.11674 6.62286 3.15386 6.822 3.22517C7.02114 3.29649 7.20161 3.40059 7.35294 3.53145L7.77778 3.89152C8.39228 4.41096 8.79741 5.08169 8.93533 5.80792C9.07325 6.53414 8.9369 7.27874 8.54575 7.93537L7.51634 9.68032C7.41924 9.86075 7.36899 10.0567 7.36899 10.255C7.36899 10.4534 7.41924 10.6494 7.51634 10.8298C8.27282 12.3833 9.38333 13.7951 10.7843 14.9844C12.1811 16.1785 13.8486 17.1206 15.6863 17.7542C15.8969 17.8344 16.1253 17.8759 16.3562 17.8759C16.5872 17.8759 16.8155 17.8344 17.0261 17.7542L19.085 16.8817C19.656 16.6483 20.2811 16.5253 20.915 16.5216C22.0114 16.5224 23.0629 16.8908 23.8399 17.5465L24.281 17.9204C24.5829 18.1783 24.7531 18.5265 24.7549 18.8898V19.9838C24.7255 20.3464 24.5291 20.6846 24.2082 20.9255C23.8872 21.1664 23.4674 21.2908 23.0392 21.2718ZM30 4.50087C30 4.86816 29.8278 5.22041 29.5214 5.48012C29.215 5.73984 28.7994 5.88575 28.366 5.88575H26.3072V7.61685C26.3072 7.98414 26.135 8.33639 25.8286 8.59611C25.5222 8.85582 25.1066 9.00173 24.6732 9.00173C24.2398 9.00173 23.8242 8.85582 23.5178 8.59611C23.2114 8.33639 23.0392 7.98414 23.0392 7.61685V5.88575H21.0131C20.5797 5.88575 20.1641 5.73984 19.8577 5.48012C19.5512 5.22041 19.3791 4.86816 19.3791 4.50087C19.3791 4.13357 19.5512 3.78132 19.8577 3.52161C20.1641 3.26189 20.5797 3.11598 21.0131 3.11598H23.0392V1.38488C23.0392 1.01759 23.2114 0.665338 23.5178 0.405623C23.8242 0.145907 24.2398 0 24.6732 0C25.1066 0 25.5222 0.145907 25.8286 0.405623C26.135 0.665338 26.3072 1.01759 26.3072 1.38488V3.11598H28.366C28.7994 3.11598 29.215 3.26189 29.5214 3.52161C29.8278 3.78132 30 4.13357 30 4.50087Z" fill="#222221"/>
</svg>
