<svg width="20" height="5" viewBox="0 0 20 5" fill="none" xmlns="http://www.w3.org/2000/svg">
<path d="M15.001 2.5C15.001 1.83696 15.2644 1.20107 15.7332 0.732234C16.2021 0.263393 16.8379 0 17.501 0C18.164 0 18.7999 0.263393 19.2687 0.732234C19.7376 1.20107 20.001 1.83696 20.001 2.5C20.001 3.16304 19.7376 3.79893 19.2687 4.26777C18.7999 4.73661 18.164 5 17.501 5C16.8379 5 16.2021 4.73661 15.7332 4.26777C15.2644 3.79893 15.001 3.16304 15.001 2.5ZM7.50098 2.5C7.50098 1.83696 7.76437 1.20107 8.23321 0.732234C8.70205 0.263393 9.33794 0 10.001 0C10.664 0 11.2999 0.263393 11.7687 0.732234C12.2376 1.20107 12.501 1.83696 12.501 2.5C12.501 3.16304 12.2376 3.79893 11.7687 4.26777C11.2999 4.73661 10.664 5 10.001 5C9.33794 5 8.70205 4.73661 8.23321 4.26777C7.76437 3.79893 7.50098 3.16304 7.50098 2.5ZM0.000976562 2.5C0.000976562 1.83696 0.264369 1.20107 0.733209 0.732234C1.20205 0.263393 1.83794 0 2.50098 0C3.16402 0 3.7999 0.263393 4.26874 0.732234C4.73758 1.20107 5.00098 1.83696 5.00098 2.5C5.00098 3.16304 4.73758 3.79893 4.26874 4.26777C3.7999 4.73661 3.16402 5 2.50098 5C1.83794 5 1.20205 4.73661 0.733209 4.26777C0.264369 3.79893 0.000976563 3.16304 0.000976562 2.5Z" fill="black" fill-opacity="0.8"/>
</svg>
