<svg width="14" height="18" viewBox="0 0 14 18" fill="none" xmlns="http://www.w3.org/2000/svg">
<path d="M7 4.05C7.66304 4.05 8.29893 4.28705 8.76777 4.70901C9.23661 5.13097 9.5 5.70326 9.5 6.3C9.5 6.59547 9.43534 6.88806 9.3097 7.16104C9.18406 7.43402 8.99991 7.68206 8.76777 7.89099C8.53562 8.09992 8.26002 8.26566 7.95671 8.37873C7.65339 8.4918 7.3283 8.55 7 8.55C6.33696 8.55 5.70107 8.31295 5.23223 7.89099C4.76339 7.46903 4.5 6.89674 4.5 6.3C4.5 5.70326 4.76339 5.13097 5.23223 4.70901C5.70107 4.28705 6.33696 4.05 7 4.05ZM7 0C8.85652 0 10.637 0.663748 11.9497 1.84523C13.2625 3.02671 14 4.62914 14 6.3C14 11.025 7 18 7 18C7 18 0 11.025 0 6.3C0 4.62914 0.737498 3.02671 2.05025 1.84523C3.36301 0.663748 5.14348 0 7 0ZM7 1.8C5.67392 1.8 4.40215 2.27411 3.46447 3.11802C2.52678 3.96193 2 5.10653 2 6.3C2 7.2 2 9 7 15.039C12 9 12 7.2 12 6.3C12 5.10653 11.4732 3.96193 10.5355 3.11802C9.59785 2.27411 8.32608 1.8 7 1.8Z" fill="black"/>
</svg>
