<svg width="43" height="41" viewBox="0 0 43 41" fill="none" xmlns="http://www.w3.org/2000/svg">
<ellipse cx="21.8977" cy="20.5" rx="21.0144" ry="20.5" fill="#F2F2F2"/>
<path d="M19.7744 10C21.794 10 23.7309 10.7435 25.159 12.067C26.5871 13.3905 27.3894 15.1855 27.3894 17.0571C27.3894 18.8051 26.6982 20.412 25.5618 21.6497L25.8781 21.9429H26.8036L32.6613 27.3714L30.904 29L25.0463 23.5714V22.7137L24.73 22.4206C23.3944 23.4737 21.6606 24.1143 19.7744 24.1143C17.7548 24.1143 15.8179 23.3708 14.3898 22.0473C12.9617 20.7238 12.1594 18.9288 12.1594 17.0571C12.1594 15.1855 12.9617 13.3905 14.3898 12.067C15.8179 10.7435 17.7548 10 19.7744 10ZM19.7744 12.1714C16.8456 12.1714 14.5025 14.3429 14.5025 17.0571C14.5025 19.7714 16.8456 21.9429 19.7744 21.9429C22.7032 21.9429 25.0463 19.7714 25.0463 17.0571C25.0463 14.3429 22.7032 12.1714 19.7744 12.1714Z" fill="black"/>
</svg>
